# xmcd
#
# Track frame offsets: 
#        150
#        27242
#        55040
#        77678
#        94090
#        130433
#        152303
#        171311
#        184514
#        207275
#        223602
#        242644
#        270717
#        298469
#        309678
#        326369
#
# Disc length: 4480 seconds
#
# Revision: 4
# Processed by: cddbd v1.5.2PL0 Copyright (c) Steve Scherf et al.
# Submitted via: ExactAudioCopy v0.99pb5
#
DISCID=e3117e10
DTITLE=Elizabeth Farr - Claude-Bénigne Balbastre: Pièces pour clavecin
DTITLE=CD1
DYEAR=2008
DGENRE=Harpsichord
TTITLE0=Pièces de clavecin, Livre I (1759) - La de Caze
TTITLE1=Pièces de clavecin, Livre I (1759) - La d'Héricourt
TTITLE2=Pièces de clavecin, Livre I (1759) - La Ségur
TTITLE3=Pièces de clavecin, Livre I (1759) - La Monmartel ou la Brunoy
TTITLE3=s
TTITLE4=Pièces de clavecin, Livre I (1759) - La Boullongne
TTITLE5=Pièces de clavecin, Livre I (1759) - La Castelmore
TTITLE6=Pièces de clavecin, Livre I (1759) - La Courteille
TTITLE7=Pièces de clavecin, Livre I (1759) - La Bellaud
TTITLE8=Livre contenant des pièces de différent genre d'orgue et de cl
TTITLE8=avecin (1749) - Sonate No. 5 en sol majeur
TTITLE9=Livre contenant des pièces de différent genre d'orgue et de cl
TTITLE9=avecin (1749) - Gavotte en Rondeau en sol mineur
TTITLE10=Livre contenant des pièces de différent genre d'orgue et de c
TTITLE10=lavecin (1749) - Sonate en sol majeur
TTITLE11=La d'Esclignac (1787)
TTITLE12=Pygmalion (Jean-Philippe Rameau (1683-1764) - Arr. Claude-Bén
TTITLE12=igne Balbastre) - Ouverture
TTITLE13=Pygmalion (Jean-Philippe Rameau (1683-1764) - Arr. Claude-Bén
TTITLE13=igne Balbastre) - Pantomime
TTITLE14=Pygmalion (Jean-Philippe Rameau (1683-1764) - Arr. Claude-Bén
TTITLE14=igne Balbastre) - Giga
TTITLE15=Pygmalion (Jean-Philippe Rameau (1683-1764) - Arr. Claude-Bén
TTITLE15=igne Balbastre) - Contredanse
EXTD=
EXTT0=
EXTT1=
EXTT2=
EXTT3=
EXTT4=
EXTT5=
EXTT6=
EXTT7=
EXTT8=
EXTT9=
EXTT10=
EXTT11=
EXTT12=
EXTT13=
EXTT14=
EXTT15=
PLAYORDER=
